<svg xmlns="http://www.w3.org/2000/svg" viewBox="0 0 48 48" aria-hidden="true">
  <defs>
    <linearGradient id="bg" x1="7" y1="5" x2="41" y2="43" gradientUnits="userSpaceOnUse">
      <stop stop-color="#31c47a"/>
      <stop offset="1" stop-color="#0f6d43"/>
    </linearGradient>
  </defs>
  <rect width="48" height="48" rx="8" fill="url(#bg)"/>
  <path d="M11 12.5A3.5 3.5 0 0 1 14.5 9H23c2.1 0 3.9.7 5 2.1A7.1 7.1 0 0 1 33 9h.5A3.5 3.5 0 0 1 37 12.5V37a2 2 0 0 1-2 2h-6.5a5.8 5.8 0 0 0-4.5 2 5.8 5.8 0 0 0-4.5-2H13a2 2 0 0 1-2-2V12.5Z" fill="#ffffff"/>
  <path d="M14.5 13H22c2.5 0 4.2 1.2 4.2 3.6v17.8A8.6 8.6 0 0 0 22 33h-7.5V13Zm19 0H34v20h-7.5a8.6 8.6 0 0 0-4.2 1.4V16.6c0-2.4 1.7-3.6 4.2-3.6h7Z" fill="#e9f7ef"/>
  <path d="M17 18.5h6M17 23h6M30 18.5h4M30 23h4M30 27.5h4" stroke="#188a55" stroke-width="2" stroke-linecap="round"/>
</svg>
