<svg xmlns="http://www.w3.org/2000/svg" viewBox="0 0 48 48" aria-hidden="true">
  <defs>
    <linearGradient id="bg" x1="7" y1="5" x2="41" y2="43" gradientUnits="userSpaceOnUse">
      <stop stop-color="#7dd3fc"/>
      <stop offset="1" stop-color="#5b42c9"/>
    </linearGradient>
  </defs>
  <rect width="48" height="48" rx="8" fill="url(#bg)"/>
  <circle cx="24" cy="17" r="6.2" fill="#ffffff"/>
  <circle cx="13.5" cy="20.5" r="4.7" fill="#dceeff"/>
  <circle cx="34.5" cy="20.5" r="4.7" fill="#dceeff"/>
  <path d="M13.5 28.2c-4.8 0-8 2.3-8 5.4V36h12.8c.5-2 1.7-3.7 3.3-5-1.8-1.8-4.5-2.8-8.1-2.8Z" fill="#dceeff"/>
  <path d="M34.5 28.2c-3.6 0-6.3 1-8.1 2.8a8.8 8.8 0 0 1 3.3 5H42v-2.4c0-3.1-3.2-5.4-7.5-5.4Z" fill="#dceeff"/>
  <path d="M24 26c-6.2 0-10.4 3-10.4 7.2V38h20.8v-4.8C34.4 29 30.2 26 24 26Z" fill="#ffffff"/>
</svg>
