<svg xmlns="http://www.w3.org/2000/svg" viewBox="0 0 48 48" aria-hidden="true">
  <defs>
    <linearGradient id="bg" x1="7" y1="5" x2="41" y2="43" gradientUnits="userSpaceOnUse">
      <stop stop-color="#35a3ff"/>
      <stop offset="1" stop-color="#06172e"/>
    </linearGradient>
  </defs>
  <rect width="48" height="48" rx="8" fill="url(#bg)"/>
  <path d="M25.7 8.2c-1-1.6-2.4-1.6-3.4 0L21 20.1 8.4 24.8c-.9.3-1.4 1.1-1.2 2l.5 2.4 13.6-2.4.5 7.6-5 3.1.4 2.1 6.8-1.6 6.8 1.6.4-2.1-5-3.1.5-7.6 13.6 2.4.5-2.4c.2-.9-.3-1.7-1.2-2L27 20.1 25.7 8.2Z" fill="#ffffff"/>
  <path d="M22 20.2h4l-.6 14.5L24 36l-1.4-1.3-.6-14.5Z" fill="#06172e" opacity=".2"/>
</svg>
